<?xml version="1.0" standalone="no"?>
<!DOCTYPE svg PUBLIC "-//W3C//DTD SVG 20010904//EN"
 "http://www.w3.org/TR/2001/REC-SVG-20010904/DTD/svg10.dtd">
<svg version="1.0" xmlns="http://www.w3.org/2000/svg"
 width="1024.000000pt" height="1024.000000pt" viewBox="0 0 1024.000000 1024.000000"
 preserveAspectRatio="xMidYMid meet">
<metadata>
Created by potrace 1.14, written by Peter Selinger 2001-2017
</metadata>
<g transform="translate(0.000000,1024.000000) scale(0.100000,-0.100000)"
fill="#000000" stroke="none">
<path d="M6035 8739 c-4 -6 -13 -8 -21 -5 -8 3 -14 0 -14 -6 0 -6 -3 -8 -7 -5
-3 4 -12 2 -20 -4 -7 -6 -13 -8 -13 -4 0 4 -7 2 -15 -5 -8 -7 -15 -9 -15 -5 0
4 -7 2 -15 -5 -8 -7 -15 -10 -15 -6 0 3 -16 -3 -35 -14 -20 -11 -42 -20 -50
-20 -8 0 -15 -4 -15 -9 0 -5 -12 -11 -27 -14 -16 -4 -81 -35 -145 -70 -65 -36
-118 -63 -118 -60 0 2 -13 -5 -29 -16 -16 -12 -34 -21 -39 -21 -6 0 -18 -7
-26 -16 -9 -9 -22 -17 -29 -18 -6 -1 -16 -4 -22 -8 -11 -7 -214 -112 -315
-163 -36 -19 -68 -33 -71 -32 -4 1 -16 -7 -28 -17 -12 -11 -21 -15 -21 -10 0
5 -4 4 -8 -2 -4 -6 -72 -43 -152 -83 -80 -41 -149 -77 -155 -82 -5 -5 -17 -9
-26 -9 -9 0 -20 -7 -23 -16 -4 -9 -9 -14 -13 -11 -3 4 -12 2 -20 -4 -7 -6 -13
-9 -13 -5 0 3 -9 -2 -20 -12 -12 -9 -23 -15 -27 -14 -3 2 -9 -1 -13 -8 -4 -6
-14 -12 -22 -14 -8 -1 -26 -9 -39 -18 -14 -9 -72 -39 -129 -68 -58 -29 -107
-55 -110 -59 -3 -3 -12 -7 -20 -9 -8 -2 -37 -16 -65 -32 -27 -16 -54 -29 -60
-30 -5 -1 -18 -9 -27 -17 -10 -9 -18 -12 -18 -7 0 5 -4 4 -8 -1 -4 -6 -72 -43
-152 -83 -80 -39 -168 -85 -197 -101 -28 -16 -54 -27 -57 -24 -3 4 -6 2 -6 -4
0 -10 -36 -26 -52 -24 -5 1 -8 -4 -8 -9 0 -6 -30 -24 -67 -42 -38 -17 -70 -34
-73 -37 -3 -3 -29 -17 -57 -31 -29 -14 -53 -29 -53 -33 0 -5 -4 -6 -9 -3 -5 3
-24 -4 -42 -17 -41 -27 -91 -51 -101 -49 -5 1 -8 -2 -8 -7 0 -9 -60 -37 -72
-33 -5 1 -8 -3 -8 -9 0 -5 -4 -7 -10 -4 -5 3 -10 2 -10 -3 0 -4 -48 -32 -107
-62 -60 -30 -110 -58 -111 -62 -2 -4 -7 -6 -11 -3 -5 2 -23 -7 -41 -20 -19
-14 -40 -25 -48 -25 -8 0 -25 -9 -39 -20 -14 -11 -29 -17 -34 -14 -5 3 -9 1
-9 -5 0 -10 -38 -27 -52 -23 -5 1 -8 -2 -8 -8 0 -5 -47 -33 -105 -61 -58 -28
-105 -54 -105 -58 0 -4 -10 -7 -21 -8 -12 -1 -29 -8 -38 -16 -9 -8 -26 -18
-38 -21 -13 -4 -23 -12 -23 -18 0 -6 -3 -9 -6 -5 -3 3 -32 -10 -64 -29 -32
-19 -61 -34 -63 -34 -3 0 -35 -18 -71 -40 -36 -22 -68 -40 -71 -40 -3 0 -14
-8 -24 -17 -10 -10 -36 -33 -56 -52 -21 -18 -46 -53 -56 -77 -26 -58 -35 -185
-17 -244 17 -56 39 -60 119 -19 l56 28 7 -45 c7 -58 22 -84 46 -84 10 0 69 25
131 55 l113 55 23 -27 c12 -16 21 -32 19 -38 -1 -5 -33 -15 -70 -22 -78 -14
-199 -58 -221 -79 -8 -8 -17 -14 -20 -14 -11 2 -105 -70 -105 -80 0 -5 -6 -10
-14 -10 -29 0 -206 -231 -206 -270 0 -5 -5 -10 -11 -10 -5 0 -7 -4 -4 -10 3
-5 3 -10 -2 -10 -11 0 -34 -51 -27 -61 3 -5 0 -9 -5 -9 -6 0 -10 -3 -9 -7 0
-5 -1 -15 -5 -23 -37 -98 -50 -165 -54 -296 -5 -137 9 -284 27 -284 4 0 6 -8
3 -19 -2 -10 2 -25 11 -33 8 -9 13 -18 10 -21 -6 -6 12 -41 36 -71 8 -10 14
-21 14 -25 -2 -10 8 -34 22 -51 7 -8 52 -64 99 -124 94 -117 96 -120 140 -169
39 -44 81 -93 125 -146 19 -23 52 -60 74 -82 21 -21 36 -39 33 -39 -3 0 16
-21 42 -47 26 -27 56 -63 67 -81 l19 -33 6 28 c4 15 7 61 8 102 l1 74 57 -63
c32 -35 68 -76 79 -92 l21 -28 7 31 c3 17 6 61 6 98 1 371 210 755 485 891 47
23 85 48 85 55 0 15 -64 95 -291 366 l-148 177 106 58 c128 71 131 72 104 45
-11 -11 -21 -28 -21 -36 0 -27 48 -108 95 -161 6 -7 26 -31 45 -55 19 -24 79
-94 133 -156 53 -62 95 -113 91 -113 -3 0 8 -11 25 -26 17 -14 61 -62 98 -107
37 -45 87 -102 110 -127 23 -25 43 -49 45 -54 2 -5 17 -23 33 -41 17 -17 44
-48 60 -68 17 -21 44 -51 60 -68 17 -17 30 -34 30 -37 0 -4 14 -21 30 -38 35
-37 78 -86 120 -139 17 -20 42 -49 58 -65 15 -15 27 -31 27 -35 0 -4 13 -21
30 -36 16 -16 28 -29 25 -29 -3 0 10 -16 28 -35 17 -19 43 -48 57 -66 14 -17
41 -48 60 -68 19 -21 37 -42 39 -47 2 -5 29 -38 60 -73 62 -70 79 -90 177
-206 37 -44 80 -93 96 -110 15 -16 56 -64 89 -105 34 -41 85 -102 113 -134 28
-33 50 -63 49 -68 -2 -4 1 -8 6 -8 8 0 70 -70 149 -167 82 -101 75 -97 130
-76 9 3 26 8 37 10 11 2 21 8 23 13 2 5 9 7 16 4 8 -3 20 1 27 8 13 12 26 17
54 22 6 1 16 5 23 9 6 5 12 5 12 1 0 -3 11 1 25 10 14 9 25 14 25 10 0 -4 7
-1 15 6 8 7 15 10 15 7 0 -3 12 0 27 8 15 8 30 12 35 9 4 -3 8 0 8 5 0 6 6 11
14 11 16 0 382 132 416 150 14 7 25 12 25 11 0 -2 12 0 28 4 15 4 27 10 27 14
0 7 7 9 50 13 11 1 20 6 20 10 0 4 9 8 19 8 11 0 23 5 26 10 4 6 10 8 15 5 5
-3 12 0 15 6 4 5 13 8 21 5 8 -3 14 -2 14 3 0 5 21 14 47 21 26 6 52 15 58 19
5 4 35 16 65 25 30 10 96 34 145 54 50 19 96 35 103 35 6 0 12 5 12 10 0 6 3
7 7 4 3 -4 12 -2 20 4 7 6 13 8 13 5 0 -4 10 -1 23 6 12 6 28 13 36 14 7 2 35
12 61 23 27 12 57 22 67 24 10 1 24 6 31 10 6 5 12 5 12 0 0 -4 4 -3 8 3 4 7
54 28 112 47 159 55 192 67 227 82 17 8 37 15 45 15 8 0 19 5 26 12 7 7 12 8
12 4 0 -5 7 -3 15 4 8 7 15 10 15 6 0 -4 13 0 29 8 16 9 31 12 35 9 3 -4 6 -1
6 6 0 8 7 11 15 7 8 -3 15 -1 15 5 0 6 4 8 9 5 5 -4 11 -3 13 1 1 5 57 27 123
50 204 70 250 88 253 96 2 4 8 4 13 1 6 -3 17 0 26 8 9 7 18 12 20 11 1 -2 4
-3 6 -2 1 0 9 2 17 4 33 8 85 31 92 40 4 6 8 6 8 1 0 -5 7 -3 15 4 8 7 15 9
15 5 0 -4 7 -2 15 5 8 7 15 9 15 5 0 -4 7 -2 15 5 8 7 15 9 15 5 0 -4 7 -2 15
5 8 7 15 9 15 5 0 -4 7 -2 15 5 8 7 15 9 15 5 0 -4 6 -2 13 4 8 6 17 8 20 4 4
-3 7 -1 7 5 0 7 6 12 13 12 13 0 182 59 322 112 44 17 86 31 93 31 6 0 12 4
12 9 0 5 5 6 10 3 6 -3 10 -1 10 5 0 6 5 8 10 5 6 -4 17 -1 25 5 8 7 15 9 15
5 0 -4 7 -1 17 6 9 8 19 13 22 12 3 -1 26 7 50 18 24 10 47 16 52 13 5 -3 9 0
9 6 0 5 15 17 33 26 17 9 44 35 59 58 23 36 26 48 18 75 -5 17 -9 35 -10 39 0
4 -10 17 -20 30 -11 12 -20 25 -20 28 0 4 -30 41 -67 83 -38 42 -82 92 -99
111 -17 19 -74 83 -127 142 -54 58 -97 111 -97 117 0 6 -4 11 -9 11 -4 0 -41
37 -81 83 -110 125 -158 180 -179 202 -39 43 -128 144 -176 199 -27 32 -61 71
-75 86 -14 15 -50 56 -80 90 -30 35 -63 71 -72 79 -10 9 -18 19 -18 23 0 4
-20 29 -45 55 -65 69 -105 114 -145 163 -19 23 -54 62 -77 87 -24 24 -43 46
-43 49 0 3 -16 21 -35 40 -19 18 -35 37 -35 41 0 5 -16 23 -35 40 -19 18 -35
36 -35 40 0 4 -20 26 -46 50 -25 24 -42 43 -38 43 5 0 -12 20 -37 44 -24 24
-54 58 -66 74 -13 16 -46 53 -73 83 -28 30 -76 83 -107 119 -69 79 -233 240
-244 240 -4 0 -15 7 -23 16 -9 8 -26 18 -38 21 -36 9 -149 7 -156 -3 -4 -5
-14 -11 -22 -13 -8 -2 -19 -4 -25 -6 -5 -1 -21 -7 -35 -12 -14 -6 -29 -12 -35
-13 -48 -10 -57 -42 -23 -85 20 -26 20 -29 5 -40 -9 -7 -17 -19 -17 -27 0 -7
32 -59 72 -113 195 -272 199 -278 186 -291 -7 -7 -60 -32 -118 -55 -58 -23
-107 -46 -108 -51 -2 -4 -8 -6 -13 -3 -4 3 -20 -2 -34 -11 -14 -9 -25 -13 -25
-10 0 4 -10 1 -22 -6 -13 -6 -32 -13 -44 -13 -11 -1 -26 -5 -33 -9 -24 -15
-80 40 -167 166 -49 70 -92 128 -96 128 -4 0 -8 5 -8 11 0 14 -108 159 -123
165 -7 2 -73 -21 -147 -52 -74 -31 -169 -70 -210 -87 -41 -16 -77 -34 -78 -39
-2 -4 -8 -6 -13 -2 -5 3 -9 0 -9 -6 0 -6 -5 -8 -10 -5 -6 3 -16 0 -24 -8 -12
-11 -10 -19 10 -53 14 -21 34 -57 45 -79 11 -22 58 -94 105 -160 147 -207 138
-192 126 -220 -6 -14 -18 -25 -27 -25 -8 0 -15 -4 -15 -9 0 -5 -10 -11 -22
-14 -13 -3 -88 -33 -168 -66 -80 -34 -154 -63 -165 -65 -11 -2 -24 -5 -30 -7
-30 -9 -62 26 -176 192 -67 99 -129 183 -136 188 -8 4 -26 25 -41 47 -26 37
-72 59 -72 34 0 -6 -5 -8 -10 -5 -6 4 -22 -1 -35 -9 -14 -9 -25 -14 -25 -10 0
3 -11 -1 -25 -10 -14 -9 -30 -14 -35 -11 -6 3 -10 1 -10 -5 0 -6 -4 -8 -10 -5
-5 3 -10 1 -10 -5 0 -7 -6 -10 -13 -7 -7 3 -24 -4 -38 -14 -13 -10 -29 -19
-35 -19 -12 0 -213 -85 -221 -94 -7 -7 26 -66 37 -66 6 0 10 -5 10 -11 0 -14
132 -199 142 -199 4 0 8 -7 8 -15 0 -9 12 -27 26 -42 14 -14 23 -27 20 -30 -3
-3 4 -15 15 -27 20 -20 59 -96 59 -113 0 -5 -9 -16 -20 -26 -11 -9 -20 -14
-20 -11 0 4 -11 -1 -25 -10 -14 -9 -25 -14 -25 -10 0 4 -7 1 -15 -6 -8 -7 -15
-9 -15 -6 0 4 -12 0 -27 -8 -16 -8 -45 -22 -65 -30 -21 -9 -54 -23 -74 -32
-19 -8 -59 -24 -89 -34 l-53 -18 -55 76 c-30 43 -86 125 -126 184 -76 114
-107 144 -141 133 -11 -4 -20 -2 -20 4 0 12 -59 71 -70 71 -7 0 -60 -16 -90
-27 -8 -3 -19 -7 -25 -9 -5 -1 -32 -12 -60 -25 -27 -13 -55 -24 -61 -25 -6 -1
-27 -9 -45 -17 -19 -9 -41 -17 -49 -19 -8 -2 -21 -9 -29 -16 -7 -7 -20 -11
-27 -8 -8 3 -14 2 -14 -2 0 -8 -10 -13 -175 -77 -167 -66 -169 -66 -175 -66
-3 0 -15 -7 -27 -15 -13 -8 -23 -11 -23 -6 0 4 28 22 63 40 34 17 91 48 127
67 88 49 227 122 460 245 107 56 251 133 320 170 69 37 224 120 345 185 315
169 849 456 1140 613 321 173 350 189 470 252 55 29 135 73 179 96 43 24 80
44 81 44 5 0 322 172 415 225 111 63 209 135 240 177 21 27 26 47 29 113 10
186 8 205 -29 265 -19 30 -40 59 -47 63 -7 4 -13 13 -13 18 0 10 -28 43 -87
104 -18 18 -33 37 -33 42 0 14 -170 173 -186 173 -8 0 -14 4 -14 9 0 5 -15 14
-32 21 -18 6 -41 16 -50 21 -24 13 -145 11 -153 -2z m-56 -516 c29 -31 82 -90
117 -131 l64 -75 -30 -16 c-16 -9 -51 -27 -77 -41 -26 -14 -77 -42 -112 -63
-148 -89 -175 -85 -287 39 -39 44 -87 98 -108 121 l-37 42 33 17 c54 28 159
86 213 117 68 40 115 57 145 51 14 -2 49 -30 79 -61z m-975 -448 c21 -14 193
-205 209 -232 9 -14 -2 -45 -13 -38 -5 3 -14 -1 -22 -8 -25 -24 -71 -50 -63
-36 4 9 2 9 -7 -1 -13 -14 -64 -44 -173 -99 -27 -14 -52 -29 -55 -32 -13 -15
-67 -16 -98 -2 -18 9 -66 56 -107 105 -41 49 -75 85 -75 81 0 -4 -10 7 -22 26
l-22 34 31 26 c17 14 55 38 85 53 29 15 98 52 153 82 104 58 140 66 179 41z
m-949 -495 c29 -18 225 -230 225 -244 0 -12 -34 -45 -42 -40 -4 3 -8 0 -8 -6
0 -10 -48 -35 -63 -32 -4 1 -10 -5 -13 -13 -4 -8 -14 -15 -24 -15 -10 0 -20
-3 -22 -7 -3 -8 -123 -74 -185 -102 -18 -8 -33 -19 -33 -24 0 -4 -4 -6 -9 -3
-5 4 -19 2 -32 -2 -20 -8 -33 3 -113 97 -50 58 -101 117 -113 131 -36 39 -29
55 38 95 33 19 62 35 64 35 2 0 34 17 72 39 111 62 205 111 216 111 5 0 24 -9
42 -20z m-889 -597 c75 -83 104 -118 104 -128 0 -3 7 -13 15 -21 20 -21 -3
-69 -31 -64 -4 1 -10 -3 -13 -8 -7 -10 -99 -63 -183 -104 -32 -15 -58 -33 -58
-39 0 -5 -4 -8 -9 -4 -5 3 -15 -1 -23 -8 -7 -7 -25 -18 -40 -24 -25 -11 -29
-8 -128 105 -118 135 -140 172 -119 198 21 25 77 58 238 141 l145 75 19 -23
c10 -13 48 -56 83 -96z"/>
<path d="M3000 4937 c-85 -22 -158 -52 -195 -81 -52 -40 -115 -101 -115 -111
0 -4 -8 -15 -18 -24 -18 -15 -87 -118 -90 -134 -1 -4 -13 -28 -26 -55 -111
-220 -122 -546 -26 -758 15 -34 33 -64 39 -68 6 -4 9 -12 6 -17 -4 -5 1 -12 9
-15 9 -3 13 -10 10 -15 -3 -5 0 -9 5 -9 6 0 11 -4 11 -10 0 -9 16 -31 45 -64
6 -6 22 -27 35 -46 13 -19 27 -37 30 -40 3 -3 25 -30 50 -60 24 -30 60 -71 79
-90 19 -19 35 -37 34 -40 -2 -12 303 -350 316 -350 11 0 12 11 7 58 -10 75
-12 132 -6 131 3 0 29 -29 59 -65 30 -35 60 -64 66 -64 8 0 11 37 11 118 0
129 19 221 74 359 87 219 260 425 424 507 55 27 76 42 76 56 0 19 -62 100
-202 265 -37 44 -147 175 -244 290 -279 332 -263 318 -341 308 -37 -4 -53 -2
-53 6 0 6 -6 11 -14 11 -8 0 -16 4 -18 8 -1 5 -19 4 -38 -1z"/>
<path d="M8720 4525 c-5 -14 -12 -36 -16 -49 -3 -13 -24 -42 -47 -64 -36 -35
-72 -53 -251 -122 -115 -44 -245 -93 -290 -109 -44 -16 -211 -78 -371 -136
-159 -59 -364 -133 -455 -165 -238 -85 -682 -246 -1000 -365 -147 -54 -604
-221 -880 -320 -528 -189 -582 -217 -773 -396 -100 -94 -204 -233 -227 -305
-7 -19 -16 -34 -21 -34 -6 0 -7 -4 -4 -10 3 -5 -1 -19 -9 -31 -8 -12 -12 -28
-9 -35 3 -8 0 -14 -7 -14 -7 0 -10 -6 -7 -14 3 -8 3 -17 -1 -20 -6 -7 -12 -28
-15 -61 -2 -11 -5 -24 -8 -30 -3 -5 -5 -31 -5 -57 1 -27 -2 -48 -5 -48 -3 0
-5 -17 -4 -37 1 -21 3 -38 5 -38 1 0 4 -20 6 -45 7 -76 8 -80 15 -80 4 0 6 -8
4 -17 -1 -10 2 -24 8 -30 5 -7 6 -13 2 -13 -5 0 0 -9 11 -21 10 -12 17 -23 15
-26 -1 -2 14 -31 34 -64 52 -85 199 -189 266 -189 11 0 19 -4 19 -9 0 -5 9 -7
20 -4 12 3 20 0 20 -6 0 -7 4 -10 9 -6 5 3 12 1 16 -5 8 -12 115 -14 115 -1 0
4 8 8 18 8 22 -1 71 12 99 25 13 6 26 8 30 5 3 -4 11 -3 18 3 6 5 36 16 66 24
68 19 204 64 246 82 17 8 36 14 42 14 7 0 27 7 47 15 19 8 38 15 42 16 4 1 35
12 70 25 34 13 62 21 62 18 0 -3 7 2 16 11 9 9 23 14 30 11 8 -3 14 -1 14 4 0
6 3 9 8 8 7 -2 110 30 127 41 6 3 15 6 20 7 16 4 267 95 302 110 17 8 37 14
45 14 8 0 19 5 26 12 7 7 12 9 12 5 0 -3 28 6 63 21 34 15 69 28 77 27 8 0 18
3 21 8 3 5 12 9 20 10 8 2 20 6 27 11 7 4 16 6 19 2 3 -3 12 2 20 10 9 8 22
13 29 10 8 -3 14 -1 14 5 0 5 6 9 13 8 6 -1 26 3 42 10 17 7 71 28 120 46 50
18 104 39 120 45 17 7 41 14 54 16 13 2 27 8 31 15 4 6 12 9 18 5 6 -3 16 -1
24 6 7 7 20 15 28 17 8 2 20 4 25 6 10 2 21 6 60 21 11 4 22 8 25 9 3 1 19 7
35 14 17 7 35 14 40 15 6 1 20 8 33 14 12 7 22 10 22 6 0 -3 6 -2 13 4 6 5 64
28 127 50 120 42 244 88 270 99 8 3 21 5 28 4 6 -1 12 3 12 9 0 6 4 9 9 5 5
-3 12 -1 16 5 4 6 11 8 16 5 5 -4 9 -2 9 3 0 5 7 9 15 10 8 1 22 3 30 4 8 1
15 5 15 10 0 5 6 8 13 7 6 -1 26 3 42 10 17 7 107 40 200 72 94 33 181 65 195
71 14 6 28 12 33 14 4 1 9 3 12 4 3 1 10 4 15 5 6 1 11 3 13 5 3 2 40 11 55
12 6 1 12 6 12 11 0 6 3 7 7 4 3 -4 12 -2 20 4 7 6 13 8 13 4 0 -4 6 -2 13 4
8 6 22 12 33 14 10 2 30 8 44 14 14 6 84 32 155 58 121 44 185 74 210 100 23
22 45 85 45 127 0 64 -39 113 -110 138 -19 7 -46 21 -59 31 -32 25 -101 24
-186 -2 -37 -11 -68 -19 -70 -17 -2 2 -13 41 -26 88 -41 156 -36 533 8 628 9
18 18 30 21 28 3 -3 17 1 31 8 57 29 103 46 112 41 5 -4 9 -1 9 4 0 6 8 11 18
11 9 0 26 7 36 15 10 8 23 12 27 9 5 -3 9 -1 9 4 0 5 15 15 33 23 17 7 34 15
37 18 3 4 21 18 42 33 20 15 48 49 63 75 23 41 26 57 23 108 -4 71 -57 195
-83 195 -9 0 -13 -5 -10 -10 4 -6 1 -17 -5 -25 -7 -8 -9 -15 -6 -15 4 0 1 -10
-5 -22 -11 -21 -13 -20 -36 25 -13 26 -26 47 -28 47 -3 0 -10 -11 -15 -25z
m-985 -820 c-3 -14 -8 -37 -11 -52 -3 -16 -8 -39 -10 -53 -2 -14 -9 -45 -14
-70 -12 -55 -17 -129 -25 -335 -7 -168 -1 -201 29 -176 14 12 16 10 16 -12 0
-30 7 -27 -370 -161 -332 -118 -521 -187 -875 -316 -154 -57 -314 -115 -355
-130 -877 -321 -1050 -379 -1181 -396 -66 -9 -123 20 -185 94 -85 103 -107
184 -80 292 9 36 28 85 43 109 30 51 103 125 144 147 16 8 29 18 29 22 0 4 10
12 23 18 66 31 133 69 139 78 4 6 8 7 8 3 0 -4 10 -2 23 5 12 7 25 13 30 14 4
1 10 3 15 4 4 1 10 2 15 1 4 0 7 4 7 10 0 6 6 9 14 6 8 -3 16 -2 18 3 2 5 14
11 28 12 14 2 28 7 31 11 3 4 16 9 27 10 12 1 22 5 22 9 0 4 6 8 13 8 7 0 85
25 172 56 200 69 190 66 190 63 0 -1 11 4 25 11 14 8 27 15 30 15 38 9 60 19
60 27 0 5 5 6 10 3 6 -4 17 -1 25 5 8 7 15 9 15 5 0 -4 7 -2 15 5 8 7 15 10
15 6 0 -4 13 0 29 9 17 8 38 17 48 18 10 2 25 7 33 10 8 3 92 33 185 67 94 33
177 63 185 67 8 3 18 7 23 8 4 2 10 4 15 5 4 1 10 2 15 1 4 0 7 3 7 9 0 5 6 7
14 4 8 -3 17 0 21 5 3 6 11 9 16 6 5 -4 9 -1 9 5 0 6 5 8 10 5 6 -3 10 -2 10
4 0 6 7 8 15 5 8 -4 15 -1 15 5 0 6 3 10 8 9 4 -1 20 4 35 10 16 7 33 10 38 6
5 -3 9 -1 9 4 0 5 21 16 48 25 164 55 288 100 292 106 3 3 15 7 28 9 13 2 40
11 60 19 20 9 45 18 56 20 10 2 33 9 50 17 36 16 121 49 121 46 0 0 16 6 36
14 19 8 48 18 65 22 16 4 34 10 39 14 6 4 42 17 80 29 39 13 77 25 85 28 33
13 165 60 173 62 4 0 5 -10 2 -24z m492 -343 c54 -37 115 -78 136 -91 20 -12
37 -26 37 -30 0 -6 -566 -221 -582 -221 -4 0 18 35 50 78 32 42 80 109 107
147 27 39 52 72 56 75 3 3 10 12 15 21 14 26 68 89 76 89 4 0 51 -30 105 -68z"/>
<path d="M3973 3811 c-40 -10 -73 -16 -73 -13 0 2 -6 0 -12 -6 -7 -6 -16 -11
-20 -11 -5 -1 -10 -2 -13 -2 -3 -1 -8 -2 -12 -3 -5 -1 -23 -10 -40 -19 -18
-10 -33 -15 -33 -11 0 4 -9 -5 -21 -20 -11 -14 -24 -26 -29 -26 -10 0 -90 -80
-90 -91 0 -4 -9 -14 -20 -22 -11 -8 -17 -17 -13 -20 3 -4 1 -7 -5 -7 -7 0 -12
-4 -12 -10 0 -5 -11 -25 -24 -44 -32 -48 -93 -194 -111 -270 -22 -87 -26 -126
-26 -256 0 -126 25 -239 77 -343 31 -61 84 -139 102 -150 7 -5 10 -12 7 -18
-4 -5 -2 -9 2 -9 5 0 26 -22 47 -50 48 -63 81 -102 131 -153 22 -23 40 -44 40
-47 0 -3 19 -25 43 -48 23 -22 42 -45 42 -49 0 -5 14 -19 30 -33 17 -14 30
-30 30 -35 0 -6 13 -22 30 -35 16 -14 29 -29 30 -34 0 -11 100 -106 112 -106
10 0 11 24 1 34 -4 3 -8 17 -10 29 -2 12 -6 29 -9 37 -4 8 -8 26 -9 40 -2 14
-6 37 -9 53 -4 15 -4 27 -1 27 3 0 32 -28 64 -62 33 -35 62 -60 66 -56 4 3 -1
33 -11 65 -29 91 -24 289 9 415 48 184 137 354 250 482 53 60 160 150 193 163
36 14 6 58 -233 348 -136 164 -265 318 -288 342 -48 50 -66 52 -182 24z"/>
</g>
</svg>
